<svg width="216" height="222" xmlns="http://www.w3.org/2000/svg" xmlns:xlink="http://www.w3.org/1999/xlink" xml:space="preserve" overflow="hidden"><defs><clipPath id="clip0"><rect x="0" y="0" width="216" height="222"/></clipPath><clipPath id="clip1"><rect x="0" y="0" width="215" height="222"/></clipPath></defs><g clip-path="url(#clip0)"><g clip-path="url(#clip1)"><path d="M196.961 104.966C183.799 85.6657 183.344 57.9868 164.28 28.8247 145.216-0.337387 107.079-0.337391 105.713 0.0862297L105.739 5.99998 105.696 0.51832C104.33 0.0862297 66.2018 0.0862269 47.1381 29.2567 28.0742 58.4269 27.6189 86.0983 14.457 105.398 1.28669 124.698-2.69965 142.067 1.74202 148.98 3.86406 152.284 10.6512 151.785 17.1805 148.065 28.1773 141.804 24.8954 146.345 24.8954 149.785 24.8954 161.452 27.9796 190.537 52.5765 205.119 75.7297 218.844 94.3214 219.377 108.944 219.004 122.037 218.673 138.875 217.057 159.743 204.687 184.332 190.105 186.532 161.02 186.532 149.353 186.532 145.922 183.928 140.423 194.246 147.633 200.182 151.785 207.554 151.852 209.685 148.548 214.117 141.643 210.123 124.275 196.961 104.966Z" fill="#394167" fill-rule="nonzero" fill-opacity="1" transform="scale(1 1.00011)"/><path d="M103.28 212.732C103.315 212.732 103.339 212.72 103.374 212.687 102.867 212.72 102.796 212.732 103.28 212.732Z" fill="#FFFFFF" fill-rule="nonzero" fill-opacity="1" transform="scale(1 1.00011)"/><path d="M143.748 35.2801C133.579 24.9839 121.801 33.7327 114.308 40.9427 108.771 46.2653 107.619 47.124 104.724 47.1665 101.709 47.209 100.092 46.2653 94.5548 40.9427 87.0614 33.7327 75.2838 24.9839 65.1153 35.2801 54.9549 45.5766 38.3681 63.6015 41.0437 121.784 43.7192 179.965 63.6758 211.882 77.7479 217.307 90.6855 222.282 118.304 224.246 136.203 216.083 147.304 211.025 165.152 179.982 167.827 121.792 170.512 63.6015 153.916 45.5766 143.748 35.2801Z" fill="#FFFFFF" fill-rule="nonzero" fill-opacity="1" transform="scale(1 1.00011)"/><path d="M108.077 212.692C108.101 212.715 108.124 212.727 108.148 212.727 108.573 212.727 108.514 212.715 108.077 212.692Z" fill="#FFFFFF" fill-rule="nonzero" fill-opacity="1" transform="scale(1 1.00011)"/><path d="M114.76 56.1391C111.704 57.0932 108.102 58.4522 105.037 58.4522 101.971 58.4522 98.3613 57.0932 95.3131 56.1391 87.08 53.5559 67.1988 51.8929 54.0522 55.8861L50.9445 62.0314C50.9445 62.0314 55.9423 62.3015 56.7345 64.7919 57.5262 67.2822 59.3568 77.5807 62.7031 81.6073 66.8582 86.6051 74.9637 86.7904 81.0176 86.546 89.1745 86.2169 91.8906 83.7604 96.7946 76.9477 100.49 71.8151 101.035 71.6631 102.678 70.2622 103.76 69.3419 106.51 69.5191 107.412 70.2622 108.877 71.4693 109.737 71.7393 113.296 76.9477 117.655 83.3298 120.916 86.2169 129.073 86.546 135.126 86.7904 143.224 86.6051 147.388 81.6073 150.733 77.5807 152.573 67.2903 153.356 64.7919 154.148 62.293 157.928 61.8542 157.928 61.8542L155.144 55.8861C141.989 51.8929 123.002 53.5559 114.76 56.1391Z" fill="#394167" fill-rule="nonzero" fill-opacity="1" transform="scale(1 1.00011)"/><path d="M114.168 89.1954C109.237 80.9571 106.943 78.9702 104.879 78.9702 102.814 78.9702 99.9994 80.3097 94.9406 88.9678 93.2263 91.9116 91.3157 96.3406 91.7677 98.5099 92.2198 100.679 102.669 104.679 105.638 104.434 108.675 104.178 116.582 100.496 117.068 98.6918 117.606 96.7236 115.985 92.2398 114.168 89.1954Z" fill="#FF9200" fill-rule="nonzero" fill-opacity="1" transform="scale(1 1.00011)"/><path d="M144.184 167.326C138.634 158.577 138.442 146.027 130.405 132.8 122.369 119.572 106.286 119.572 105.71 119.77L105.719 122.454 105.702 119.967C105.126 119.77 89.0521 119.77 81.0071 132.997 72.9702 146.224 72.7783 158.774 67.2284 167.524 61.6785 176.274 59.9927 184.148 61.8704 187.288 62.7631 188.789 65.6259 188.558 68.3797 186.876 73.0202 184.037 71.635 186.095 71.635 187.656 71.635 192.948 72.9369 206.133 83.3102 212.747 93.0748 218.975 100.912 219.215 107.079 219.044 112.604 218.89 119.698 218.16 128.502 212.55 138.876 205.936 139.794 192.751 139.794 187.459 139.794 185.907 138.692 183.411 143.049 186.679 145.553 188.558 148.666 188.591 149.559 187.09 151.42 183.959 149.742 176.085 144.184 167.326Z" fill="#394167" fill-rule="nonzero" fill-opacity="1" transform="scale(1 1.00011)"/><path d="M105.764 215.269C105.776 215.269 105.787 215.256 105.799 215.246 105.586 215.256 105.551 215.269 105.764 215.269Z" fill="#FFFFFF" fill-rule="nonzero" fill-opacity="1" transform="scale(1 1.00011)"/><path d="M122.218 134.586C117.949 129.963 113.001 133.895 109.855 137.128 107.529 139.525 107.046 139.909 105.833 139.926 104.571 139.943 103.883 139.525 101.565 137.128 98.4189 133.887 93.4706 129.954 89.2021 134.586 84.9341 139.21 77.9623 147.313 79.0846 173.458 80.2073 199.604 91.5619 207.067 97.4686 209.498 102.9 211.733 109.306 212.611 116.827 208.945 121.489 206.668 131.213 199.595 132.335 173.45 133.458 147.313 126.494 139.218 122.218 134.586Z" fill="#FFFFFF" fill-rule="nonzero" fill-opacity="1" transform="scale(1 1.00011)"/><path d="M105.632 215.249C105.644 215.26 105.655 215.26 105.667 215.26 105.845 215.273 105.821 215.26 105.632 215.249Z" fill="#FFFFFF" fill-rule="nonzero" fill-opacity="1" transform="scale(1 1.00011)"/><path d="M110.392 146.421C109.007 146.864 107.374 147.49 105.989 147.49 104.605 147.49 102.972 146.864 101.588 146.421 97.8597 145.229 88.8601 144.464 82.9139 146.308L81.5115 149.143C81.5115 149.143 83.7747 149.265 84.1295 150.421 84.4849 151.569 85.319 156.326 86.828 158.179 88.7096 160.483 92.3751 160.57 95.1174 160.457 98.8095 160.3 100.034 159.17 102.253 156.03 103.922 153.665 104.17 153.595 104.916 152.943 105.404 152.517 106.646 152.595 107.055 152.943 107.72 153.5 108.102 153.621 109.717 156.03 111.687 158.978 113.161 160.309 116.853 160.457 119.596 160.57 123.261 160.483 125.143 158.179 126.66 156.326 127.486 151.569 127.841 150.421 128.196 149.273 129.909 149.064 129.909 149.064L128.649 146.308C122.711 144.464 114.119 145.229 110.392 146.421Z" fill="#394167" fill-rule="nonzero" fill-opacity="1" transform="scale(1 1.00011)"/><path d="M108.628 158.458C107.149 155.985 106.46 155.393 105.841 155.393 105.222 155.393 104.38 155.796 102.859 158.391 102.347 159.277 101.77 160.601 101.911 161.255 102.046 161.908 105.181 163.105 106.071 163.032 106.984 162.959 109.353 161.853 109.5 161.31 109.659 160.718 109.176 159.368 108.628 158.458Z" fill="#FF9200" fill-rule="nonzero" fill-opacity="1" transform="scale(1 1.00011)"/><path d="M287.026 43.3062C300.794 43.3062 311.386 48.7514 318.8 59.6426 326.331 70.5332 330.097 83.7327 330.097 99.2401 330.097 111.196 328.214 122.501 324.448 133.156 320.682 143.692 314.798 152.57 306.796 159.791 298.794 166.894 289.439 170.445 278.729 170.445 276.611 170.445 268.609 169.617 254.723 167.959 256.37 142.508 257.194 121.436 257.194 104.745 257.194 88.0532 256.665 69.5863 255.606 49.3435 267.02 45.3186 277.494 43.3062 287.026 43.3062ZM283.143 148.782C288.556 148.782 293.91 143.987 299.206 134.399 304.619 124.692 307.326 114.274 307.326 103.147 307.326 91.9006 305.384 82.6672 301.501 75.4463 297.735 68.2249 293.204 64.6142 287.909 64.6142 285.084 64.6142 282.436 65.0877 279.965 66.0351 280.436 83.5551 280.672 98.2932 280.672 110.249 280.672 122.087 280.318 134.458 279.612 147.361 280.436 148.308 281.613 148.782 283.143 148.782ZM395.931 166.006 391.871 141.324 365.569 142.389 358.862 175.772 334.149 173.641 365.746 44.9043 398.402 47.7454 421.526 168.137 395.931 166.006ZM380.397 68.1658 369.276 123.389 389.047 122.679 380.397 68.1658ZM466.648 43.3062C480.417 43.3062 491.006 48.7514 498.423 59.6426 505.954 70.5332 509.717 83.7327 509.717 99.2401 509.717 111.196 507.835 122.501 504.072 133.156 500.304 143.692 494.421 152.57 486.419 159.791 478.416 166.894 469.061 170.445 458.352 170.445 456.234 170.445 448.232 169.617 434.345 167.959 435.993 142.508 436.817 121.436 436.817 104.745 436.817 88.0532 436.287 69.5863 435.228 49.3435 446.643 45.3186 457.117 43.3062 466.648 43.3062ZM462.765 148.782C468.178 148.782 473.533 143.987 478.826 134.399 484.242 124.692 486.948 114.274 486.948 103.147 486.948 91.9006 485.004 82.6672 481.122 75.4463 477.359 68.2249 472.826 64.6142 467.531 64.6142 464.707 64.6142 462.059 65.0877 459.588 66.0351 460.058 83.5551 460.294 98.2932 460.294 110.249 460.294 122.087 459.941 134.458 459.235 147.361 460.058 148.308 461.235 148.782 462.765 148.782ZM575.552 166.006 571.489 141.324 545.19 142.389 538.483 175.772 513.771 173.641 545.366 44.9043 578.025 47.7454 601.146 168.137 575.552 166.006ZM560.019 68.1658 548.896 123.389 568.669 122.679 560.019 68.1658Z" fill="#394167" fill-rule="nonzero" fill-opacity="1" transform="scale(1 1.00011)"/></g></g></svg>