<svg width="1028" height="112" viewBox="0 0 1028 112" fill="none" xmlns="http://www.w3.org/2000/svg">
<path d="M29.2345 100.04C29.1246 99.6951 28.9769 99.3864 28.7913 99.1136C28.6095 98.8371 28.3917 98.6023 28.1379 98.4091C27.8841 98.2121 27.5943 98.0625 27.2686 97.9602C26.9466 97.858 26.5924 97.8068 26.2061 97.8068C25.5508 97.8068 24.9598 97.9754 24.4333 98.3125C23.9068 98.6496 23.4901 99.1439 23.1833 99.7955C22.8803 100.443 22.7288 101.237 22.7288 102.176C22.7288 103.119 22.8822 103.917 23.189 104.568C23.4958 105.22 23.9163 105.714 24.4504 106.051C24.9845 106.388 25.5924 106.557 26.2742 106.557C26.9068 106.557 27.4579 106.428 27.9276 106.17C28.4011 105.913 28.7667 105.549 29.0242 105.08C29.2856 104.606 29.4163 104.049 29.4163 103.409L29.8708 103.494H26.5413V102.045H31.1151V103.369C31.1151 104.347 30.9068 105.195 30.4901 105.915C30.0773 106.631 29.5053 107.184 28.7742 107.574C28.047 107.964 27.2136 108.159 26.2742 108.159C25.2212 108.159 24.297 107.917 23.5015 107.432C22.7098 106.947 22.0924 106.259 21.6492 105.369C21.2061 104.475 20.9845 103.415 20.9845 102.188C20.9845 101.259 21.1133 100.426 21.3708 99.6875C21.6284 98.9489 21.9901 98.322 22.4561 97.8068C22.9258 97.2879 23.4769 96.892 24.1095 96.6193C24.7458 96.3428 25.4409 96.2045 26.1947 96.2045C26.8235 96.2045 27.4087 96.2973 27.9504 96.483C28.4958 96.6686 28.9807 96.9318 29.4049 97.2727C29.8329 97.6136 30.1871 98.0189 30.4674 98.4886C30.7477 98.9545 30.9371 99.4716 31.0356 100.04H29.2345ZM33.7544 108V99.2727H35.4532V108H33.7544ZM34.6123 97.9261C34.3169 97.9261 34.0631 97.8277 33.8509 97.6307C33.6426 97.4299 33.5384 97.1913 33.5384 96.9148C33.5384 96.6345 33.6426 96.3958 33.8509 96.1989C34.0631 95.9981 34.3169 95.8977 34.6123 95.8977C34.9078 95.8977 35.1597 95.9981 35.368 96.1989C35.5801 96.3958 35.6862 96.6345 35.6862 96.9148C35.6862 97.1913 35.5801 97.4299 35.368 97.6307C35.1597 97.8277 34.9078 97.9261 34.6123 97.9261ZM41.8126 99.2727V100.636H37.0455V99.2727H41.8126ZM38.324 97.1818H40.0228V105.438C40.0228 105.767 40.0721 106.015 40.1705 106.182C40.269 106.345 40.3959 106.456 40.5512 106.517C40.7103 106.574 40.8827 106.602 41.0683 106.602C41.2046 106.602 41.324 106.593 41.4262 106.574C41.5285 106.555 41.608 106.54 41.6649 106.528L41.9717 107.932C41.8732 107.97 41.733 108.008 41.5512 108.045C41.3694 108.087 41.1421 108.11 40.8694 108.114C40.4224 108.121 40.0058 108.042 39.6194 107.875C39.233 107.708 38.9205 107.451 38.6819 107.102C38.4433 106.754 38.324 106.316 38.324 105.79V97.1818Z" fill="black"/>
<g clip-path="url(#clip0_3569_1410)">
<path d="M65.8175 35.6867L36.5723 6.2703C35.7627 5.4569 34.665 5 33.5206 5C32.3762 5 31.2786 5.4569 30.469 6.2703L24.3881 12.3807L32.0931 20.1288C36.14 18.7542 39.9716 22.6508 38.5823 26.6979L46.0091 34.1663C51.1283 32.3916 55.1588 38.8284 51.3138 42.6919C47.3521 46.6757 40.8136 42.2603 42.9387 37.0763L36.0069 30.1147V48.4398C39.7906 50.3257 39.336 54.7337 37.3649 56.7113C36.4018 57.6792 35.096 58.2229 33.7345 58.2229C32.3729 58.2229 31.0671 57.6792 30.1041 56.7113C27.4764 54.0644 28.4485 49.6565 31.7865 48.2894V29.7914C28.6758 28.5116 28.1075 25.1684 28.9989 23.0238L21.403 15.3764L1.3449 35.5498C0.535665 36.3638 0.0810547 37.4676 0.0810547 38.6186C0.0810547 39.7695 0.535665 40.8734 1.3449 41.6873L30.5991 71.1037C31.4084 71.917 32.5058 72.3738 33.65 72.3738C34.7942 72.3738 35.8915 71.917 36.7009 71.1037L65.8175 41.8241C66.6267 41.0102 67.0813 39.9064 67.0813 38.7554C67.0813 37.6045 66.6267 36.5006 65.8175 35.6867Z" fill="black"/>
</g>
<path d="M116.555 108V96.3636H118.31V101.42H124.112V96.3636H125.873V108H124.112V102.926H118.31V108H116.555ZM127.856 97.875V96.3636H136.862V97.875H133.231V108H131.481V97.875H127.856ZM138.852 96.3636H140.982L144.687 105.409H144.823L148.528 96.3636H150.658V108H148.988V99.5795H148.88L145.448 107.983H144.062L140.63 99.5739H140.522V108H138.852V96.3636ZM153.211 108V96.3636H154.967V106.489H160.239V108H153.211ZM165.924 108.159C165.212 108.159 164.572 108.023 164.004 107.75C163.439 107.473 162.988 107.095 162.651 106.614C162.314 106.133 162.134 105.583 162.112 104.966H163.816C163.858 105.466 164.079 105.877 164.481 106.199C164.882 106.521 165.363 106.682 165.924 106.682C166.371 106.682 166.767 106.58 167.112 106.375C167.46 106.167 167.733 105.881 167.93 105.517C168.131 105.153 168.231 104.739 168.231 104.273C168.231 103.799 168.129 103.377 167.924 103.006C167.72 102.634 167.437 102.343 167.078 102.131C166.721 101.919 166.312 101.811 165.85 101.807C165.498 101.807 165.144 101.867 164.788 101.989C164.432 102.11 164.144 102.269 163.924 102.466L162.316 102.227L162.97 96.3636H169.367V97.8693H164.43L164.06 101.125H164.129C164.356 100.905 164.657 100.722 165.032 100.574C165.411 100.426 165.816 100.352 166.248 100.352C166.956 100.352 167.587 100.521 168.14 100.858C168.697 101.195 169.134 101.655 169.453 102.239C169.774 102.818 169.934 103.485 169.93 104.239C169.934 104.992 169.763 105.665 169.418 106.256C169.078 106.847 168.604 107.312 167.998 107.653C167.396 107.991 166.704 108.159 165.924 108.159Z" fill="black"/>
<path d="M114.042 5L119.419 65.3L143.548 72L167.739 65.2916L173.124 5H114.047H114.042ZM161.42 24.7231H133.121L133.795 32.2983H160.75L158.719 55.0029L143.548 59.2072L128.397 55.0029L127.363 43.3868H134.787L135.315 49.2912L143.552 51.5106L143.569 51.5064L151.81 49.2828L152.664 39.6934H127.032L125.039 17.328H162.086L161.424 24.7231H161.42Z" fill="black"/>
<path d="M243.188 100.148H241.416C241.347 99.7689 241.22 99.4356 241.035 99.1477C240.849 98.8598 240.622 98.6155 240.353 98.4148C240.084 98.214 239.783 98.0625 239.45 97.9602C239.12 97.858 238.77 97.8068 238.399 97.8068C237.728 97.8068 237.128 97.9754 236.597 98.3125C236.071 98.6496 235.654 99.1439 235.347 99.7955C235.044 100.447 234.893 101.242 234.893 102.182C234.893 103.129 235.044 103.928 235.347 104.58C235.654 105.231 236.073 105.723 236.603 106.057C237.133 106.39 237.73 106.557 238.393 106.557C238.76 106.557 239.109 106.508 239.438 106.409C239.772 106.307 240.073 106.157 240.342 105.96C240.611 105.763 240.838 105.523 241.024 105.239C241.213 104.951 241.344 104.621 241.416 104.25L243.188 104.256C243.094 104.828 242.91 105.354 242.637 105.835C242.368 106.312 242.022 106.725 241.597 107.074C241.177 107.419 240.696 107.686 240.154 107.875C239.613 108.064 239.022 108.159 238.381 108.159C237.374 108.159 236.476 107.92 235.688 107.443C234.9 106.962 234.279 106.275 233.825 105.381C233.374 104.487 233.149 103.42 233.149 102.182C233.149 100.939 233.376 99.8731 233.83 98.983C234.285 98.089 234.906 97.4034 235.694 96.9261C236.482 96.4451 237.378 96.2045 238.381 96.2045C238.999 96.2045 239.575 96.2936 240.109 96.4716C240.647 96.6458 241.13 96.9034 241.558 97.2443C241.986 97.5814 242.34 97.9943 242.62 98.483C242.9 98.9678 243.09 99.5227 243.188 100.148ZM251.636 99.4205C251.575 98.8826 251.325 98.4659 250.886 98.1705C250.446 97.8712 249.893 97.7216 249.227 97.7216C248.749 97.7216 248.336 97.7973 247.988 97.9489C247.64 98.0966 247.369 98.3011 247.176 98.5625C246.986 98.8201 246.891 99.1136 246.891 99.4432C246.891 99.7197 246.956 99.9583 247.085 100.159C247.217 100.36 247.39 100.528 247.602 100.665C247.818 100.797 248.049 100.909 248.295 101C248.541 101.087 248.778 101.159 249.005 101.216L250.141 101.511C250.513 101.602 250.893 101.725 251.283 101.881C251.674 102.036 252.035 102.241 252.369 102.494C252.702 102.748 252.971 103.062 253.176 103.438C253.384 103.812 253.488 104.261 253.488 104.784C253.488 105.443 253.318 106.028 252.977 106.54C252.64 107.051 252.149 107.455 251.505 107.75C250.865 108.045 250.09 108.193 249.181 108.193C248.31 108.193 247.556 108.055 246.92 107.778C246.283 107.502 245.785 107.11 245.426 106.602C245.066 106.091 244.867 105.485 244.829 104.784H246.59C246.624 105.205 246.761 105.555 246.999 105.835C247.242 106.112 247.551 106.318 247.926 106.455C248.304 106.587 248.719 106.653 249.17 106.653C249.666 106.653 250.107 106.576 250.494 106.42C250.884 106.261 251.191 106.042 251.414 105.761C251.638 105.477 251.749 105.146 251.749 104.767C251.749 104.422 251.651 104.14 251.454 103.92C251.261 103.701 250.997 103.519 250.664 103.375C250.335 103.231 249.961 103.104 249.545 102.994L248.17 102.619C247.238 102.366 246.499 101.992 245.954 101.5C245.412 101.008 245.141 100.356 245.141 99.5455C245.141 98.875 245.323 98.2898 245.687 97.7898C246.051 97.2898 246.543 96.9015 247.164 96.625C247.785 96.3447 248.486 96.2045 249.266 96.2045C250.054 96.2045 250.749 96.3428 251.352 96.6193C251.958 96.8958 252.435 97.2765 252.783 97.7614C253.132 98.2424 253.314 98.7955 253.329 99.4205H251.636ZM261.933 99.4205C261.872 98.8826 261.622 98.4659 261.183 98.1705C260.743 97.8712 260.19 97.7216 259.524 97.7216C259.046 97.7216 258.633 97.7973 258.285 97.9489C257.936 98.0966 257.666 98.3011 257.472 98.5625C257.283 98.8201 257.188 99.1136 257.188 99.4432C257.188 99.7197 257.253 99.9583 257.381 100.159C257.514 100.36 257.686 100.528 257.899 100.665C258.114 100.797 258.345 100.909 258.592 101C258.838 101.087 259.075 101.159 259.302 101.216L260.438 101.511C260.81 101.602 261.19 101.725 261.58 101.881C261.97 102.036 262.332 102.241 262.666 102.494C262.999 102.748 263.268 103.062 263.472 103.438C263.681 103.812 263.785 104.261 263.785 104.784C263.785 105.443 263.614 106.028 263.274 106.54C262.936 107.051 262.446 107.455 261.802 107.75C261.162 108.045 260.387 108.193 259.478 108.193C258.607 108.193 257.853 108.055 257.217 107.778C256.58 107.502 256.082 107.11 255.722 106.602C255.363 106.091 255.164 105.485 255.126 104.784H256.887C256.921 105.205 257.058 105.555 257.296 105.835C257.539 106.112 257.847 106.318 258.222 106.455C258.601 106.587 259.016 106.653 259.467 106.653C259.963 106.653 260.404 106.576 260.791 106.42C261.181 106.261 261.488 106.042 261.711 105.761C261.935 105.477 262.046 105.146 262.046 104.767C262.046 104.422 261.948 104.14 261.751 103.92C261.558 103.701 261.294 103.519 260.961 103.375C260.631 103.231 260.258 103.104 259.842 102.994L258.467 102.619C257.535 102.366 256.796 101.992 256.251 101.5C255.709 101.008 255.438 100.356 255.438 99.5455C255.438 98.875 255.62 98.2898 255.984 97.7898C256.347 97.2898 256.84 96.9015 257.461 96.625C258.082 96.3447 258.783 96.2045 259.563 96.2045C260.351 96.2045 261.046 96.3428 261.649 96.6193C262.255 96.8958 262.732 97.2765 263.08 97.7614C263.429 98.2424 263.611 98.7955 263.626 99.4205H261.933ZM269.775 108.159C268.995 108.159 268.298 108.025 267.684 107.756C267.074 107.487 266.591 107.114 266.235 106.636C265.883 106.155 265.694 105.598 265.667 104.966H267.451C267.474 105.311 267.589 105.61 267.798 105.864C268.01 106.114 268.286 106.307 268.627 106.443C268.968 106.58 269.347 106.648 269.764 106.648C270.222 106.648 270.627 106.568 270.979 106.409C271.336 106.25 271.614 106.028 271.815 105.744C272.015 105.456 272.116 105.125 272.116 104.75C272.116 104.36 272.015 104.017 271.815 103.722C271.618 103.422 271.328 103.187 270.945 103.017C270.567 102.847 270.108 102.761 269.57 102.761H268.587V101.33H269.57C270.002 101.33 270.381 101.252 270.707 101.097C271.036 100.941 271.294 100.725 271.479 100.449C271.665 100.169 271.758 99.8409 271.758 99.4659C271.758 99.1061 271.676 98.7936 271.514 98.5284C271.354 98.2595 271.127 98.0492 270.832 97.8977C270.54 97.7462 270.195 97.6705 269.798 97.6705C269.419 97.6705 269.065 97.7405 268.735 97.8807C268.409 98.017 268.144 98.214 267.94 98.4716C267.735 98.7254 267.625 99.0303 267.61 99.3864H265.911C265.93 98.7576 266.116 98.2045 266.468 97.7273C266.824 97.25 267.294 96.8769 267.877 96.608C268.461 96.339 269.108 96.2045 269.82 96.2045C270.567 96.2045 271.211 96.3504 271.752 96.642C272.298 96.9299 272.718 97.3144 273.014 97.7955C273.313 98.2765 273.461 98.803 273.457 99.375C273.461 100.027 273.279 100.58 272.911 101.034C272.548 101.489 272.063 101.794 271.457 101.949V102.04C272.229 102.157 272.828 102.464 273.252 102.96C273.68 103.456 273.892 104.072 273.889 104.807C273.892 105.447 273.714 106.021 273.354 106.528C272.998 107.036 272.512 107.436 271.894 107.727C271.277 108.015 270.57 108.159 269.775 108.159Z" fill="black"/>
<g clip-path="url(#clip1_3569_1410)">
<path d="M277.568 64.8059L282.852 5H224.081L224.15 5.77608L229.356 64.8143L229.4 65.3056L253.244 72H253.62L277.518 65.3L277.563 64.8087L277.568 64.8059ZM253.517 18.0622H270.594L270.081 24.0922L253.233 31.6632L253.515 33.0255H269.324L267.504 54.1054L253.457 58.0417L239.415 54.111L238.531 44.0163H244.312L244.776 49.1335L244.82 49.6304L253.341 51.9195H253.708L262.135 49.5522L262.176 49.0581L262.971 39.6055L263.035 38.835H238.048L237.523 32.7687L254.948 25.2284L254.672 23.8605H236.775L236.264 18.0538H253.498L253.517 18.0622Z" fill="black"/>
</g>
<path d="M328.945 96.3636H330.695V104.614C330.695 105.36 330.547 105.998 330.252 106.528C329.96 107.059 329.549 107.464 329.019 107.744C328.488 108.021 327.867 108.159 327.155 108.159C326.5 108.159 325.911 108.04 325.388 107.801C324.869 107.562 324.458 107.216 324.155 106.761C323.856 106.303 323.706 105.746 323.706 105.091H325.45C325.45 105.413 325.524 105.691 325.672 105.926C325.823 106.161 326.03 106.345 326.291 106.477C326.556 106.606 326.859 106.67 327.2 106.67C327.572 106.67 327.886 106.593 328.144 106.438C328.405 106.278 328.604 106.045 328.74 105.739C328.877 105.432 328.945 105.057 328.945 104.614V96.3636ZM335.653 108.193C335.1 108.193 334.6 108.091 334.153 107.886C333.707 107.678 333.352 107.377 333.091 106.983C332.833 106.589 332.705 106.106 332.705 105.534C332.705 105.042 332.799 104.636 332.989 104.318C333.178 104 333.434 103.748 333.756 103.562C334.078 103.377 334.438 103.237 334.835 103.142C335.233 103.047 335.638 102.975 336.051 102.926C336.574 102.866 336.998 102.816 337.324 102.778C337.65 102.737 337.886 102.67 338.034 102.58C338.182 102.489 338.256 102.341 338.256 102.136V102.097C338.256 101.6 338.116 101.216 337.835 100.943C337.559 100.67 337.146 100.534 336.597 100.534C336.025 100.534 335.574 100.661 335.244 100.915C334.919 101.165 334.693 101.443 334.568 101.75L332.972 101.386C333.161 100.856 333.438 100.428 333.801 100.102C334.169 99.7727 334.591 99.5341 335.068 99.3864C335.546 99.2348 336.047 99.1591 336.574 99.1591C336.922 99.1591 337.292 99.2008 337.682 99.2841C338.076 99.3636 338.443 99.5114 338.784 99.7273C339.129 99.9432 339.411 100.252 339.631 100.653C339.85 101.051 339.96 101.568 339.96 102.205V108H338.301V106.807H338.233C338.123 107.027 337.958 107.242 337.739 107.455C337.519 107.667 337.237 107.843 336.892 107.983C336.547 108.123 336.135 108.193 335.653 108.193ZM336.023 106.83C336.493 106.83 336.894 106.737 337.227 106.551C337.564 106.366 337.82 106.123 337.994 105.824C338.172 105.521 338.261 105.197 338.261 104.852V103.727C338.201 103.788 338.083 103.845 337.909 103.898C337.739 103.947 337.544 103.991 337.324 104.028C337.104 104.062 336.89 104.095 336.682 104.125C336.474 104.152 336.299 104.174 336.159 104.193C335.83 104.235 335.528 104.305 335.256 104.403C334.987 104.502 334.771 104.644 334.608 104.83C334.449 105.011 334.369 105.254 334.369 105.557C334.369 105.977 334.525 106.295 334.835 106.511C335.146 106.723 335.542 106.83 336.023 106.83ZM349.377 99.2727L346.212 108H344.394L341.223 99.2727H343.047L345.257 105.989H345.348L347.553 99.2727H349.377ZM353.263 108.193C352.71 108.193 352.21 108.091 351.763 107.886C351.316 107.678 350.962 107.377 350.7 106.983C350.443 106.589 350.314 106.106 350.314 105.534C350.314 105.042 350.409 104.636 350.598 104.318C350.787 104 351.043 103.748 351.365 103.562C351.687 103.377 352.047 103.237 352.445 103.142C352.842 103.047 353.248 102.975 353.661 102.926C354.183 102.866 354.608 102.816 354.933 102.778C355.259 102.737 355.496 102.67 355.644 102.58C355.791 102.489 355.865 102.341 355.865 102.136V102.097C355.865 101.6 355.725 101.216 355.445 100.943C355.168 100.67 354.755 100.534 354.206 100.534C353.634 100.534 353.183 100.661 352.854 100.915C352.528 101.165 352.303 101.443 352.178 101.75L350.581 101.386C350.77 100.856 351.047 100.428 351.411 100.102C351.778 99.7727 352.2 99.5341 352.678 99.3864C353.155 99.2348 353.657 99.1591 354.183 99.1591C354.532 99.1591 354.901 99.2008 355.291 99.2841C355.685 99.3636 356.053 99.5114 356.394 99.7273C356.738 99.9432 357.02 100.252 357.24 100.653C357.46 101.051 357.57 101.568 357.57 102.205V108H355.911V106.807H355.842C355.733 107.027 355.568 107.242 355.348 107.455C355.128 107.667 354.846 107.843 354.502 107.983C354.157 108.123 353.744 108.193 353.263 108.193ZM353.632 106.83C354.102 106.83 354.503 106.737 354.837 106.551C355.174 106.366 355.43 106.123 355.604 105.824C355.782 105.521 355.871 105.197 355.871 104.852V103.727C355.81 103.788 355.693 103.845 355.519 103.898C355.348 103.947 355.153 103.991 354.933 104.028C354.714 104.062 354.5 104.095 354.291 104.125C354.083 104.152 353.909 104.174 353.769 104.193C353.439 104.235 353.138 104.305 352.865 104.403C352.596 104.502 352.38 104.644 352.217 104.83C352.058 105.011 351.979 105.254 351.979 105.557C351.979 105.977 352.134 106.295 352.445 106.511C352.755 106.723 353.151 106.83 353.632 106.83ZM366.315 99.4205C366.255 98.8826 366.005 98.4659 365.565 98.1705C365.126 97.8712 364.573 97.7216 363.906 97.7216C363.429 97.7216 363.016 97.7973 362.668 97.9489C362.319 98.0966 362.048 98.3011 361.855 98.5625C361.666 98.8201 361.571 99.1136 361.571 99.4432C361.571 99.7197 361.636 99.9583 361.764 100.159C361.897 100.36 362.069 100.528 362.281 100.665C362.497 100.797 362.728 100.909 362.975 101C363.221 101.087 363.457 101.159 363.685 101.216L364.821 101.511C365.192 101.602 365.573 101.725 365.963 101.881C366.353 102.036 366.715 102.241 367.048 102.494C367.382 102.748 367.651 103.062 367.855 103.438C368.064 103.812 368.168 104.261 368.168 104.784C368.168 105.443 367.997 106.028 367.656 106.54C367.319 107.051 366.829 107.455 366.185 107.75C365.545 108.045 364.77 108.193 363.861 108.193C362.99 108.193 362.236 108.055 361.6 107.778C360.963 107.502 360.465 107.11 360.105 106.602C359.745 106.091 359.546 105.485 359.509 104.784H361.27C361.304 105.205 361.44 105.555 361.679 105.835C361.921 106.112 362.23 106.318 362.605 106.455C362.984 106.587 363.399 106.653 363.85 106.653C364.346 106.653 364.787 106.576 365.173 106.42C365.564 106.261 365.87 106.042 366.094 105.761C366.317 105.477 366.429 105.146 366.429 104.767C366.429 104.422 366.331 104.14 366.134 103.92C365.94 103.701 365.677 103.519 365.344 103.375C365.014 103.231 364.641 103.104 364.225 102.994L362.85 102.619C361.918 102.366 361.179 101.992 360.634 101.5C360.092 101.008 359.821 100.356 359.821 99.5455C359.821 98.875 360.003 98.2898 360.367 97.7898C360.73 97.2898 361.223 96.9015 361.844 96.625C362.465 96.3447 363.166 96.2045 363.946 96.2045C364.734 96.2045 365.429 96.3428 366.031 96.6193C366.637 96.8958 367.115 97.2765 367.463 97.7614C367.812 98.2424 367.993 98.7955 368.009 99.4205H366.315ZM373.805 108.176C372.961 108.176 372.234 107.985 371.624 107.602C371.018 107.216 370.552 106.684 370.226 106.006C369.9 105.328 369.737 104.551 369.737 103.676C369.737 102.79 369.904 102.008 370.237 101.33C370.571 100.648 371.04 100.116 371.646 99.733C372.252 99.3504 372.966 99.1591 373.788 99.1591C374.451 99.1591 375.042 99.2822 375.561 99.5284C376.08 99.7708 376.499 100.112 376.817 100.551C377.139 100.991 377.33 101.504 377.391 102.091H375.737C375.646 101.682 375.438 101.33 375.112 101.034C374.79 100.739 374.359 100.591 373.817 100.591C373.343 100.591 372.929 100.716 372.573 100.966C372.22 101.212 371.946 101.564 371.749 102.023C371.552 102.477 371.453 103.015 371.453 103.636C371.453 104.273 371.55 104.822 371.743 105.284C371.936 105.746 372.209 106.104 372.561 106.358C372.917 106.612 373.336 106.739 373.817 106.739C374.139 106.739 374.43 106.68 374.692 106.562C374.957 106.441 375.179 106.269 375.357 106.045C375.538 105.822 375.665 105.553 375.737 105.239H377.391C377.33 105.803 377.146 106.307 376.84 106.75C376.533 107.193 376.122 107.542 375.607 107.795C375.095 108.049 374.495 108.176 373.805 108.176ZM379.207 108V99.2727H380.85V100.659H380.94C381.1 100.189 381.38 99.8201 381.781 99.5511C382.187 99.2784 382.645 99.142 383.156 99.142C383.262 99.142 383.387 99.1458 383.531 99.1534C383.679 99.161 383.795 99.1705 383.878 99.1818V100.807C383.81 100.788 383.689 100.767 383.514 100.744C383.34 100.718 383.166 100.705 382.992 100.705C382.59 100.705 382.232 100.79 381.918 100.96C381.607 101.127 381.361 101.36 381.179 101.659C380.997 101.955 380.906 102.292 380.906 102.67V108H379.207ZM385.348 108V99.2727H387.047V108H385.348ZM386.206 97.9261C385.911 97.9261 385.657 97.8277 385.445 97.6307C385.236 97.4299 385.132 97.1913 385.132 96.9148C385.132 96.6345 385.236 96.3958 385.445 96.1989C385.657 95.9981 385.911 95.8977 386.206 95.8977C386.502 95.8977 386.753 95.9981 386.962 96.1989C387.174 96.3958 387.28 96.6345 387.28 96.9148C387.28 97.1913 387.174 97.4299 386.962 97.6307C386.753 97.8277 386.502 97.9261 386.206 97.9261ZM389.332 111.273V99.2727H390.992V100.688H391.134C391.232 100.506 391.374 100.295 391.56 100.057C391.745 99.8182 392.003 99.6098 392.332 99.4318C392.662 99.25 393.098 99.1591 393.639 99.1591C394.344 99.1591 394.973 99.3371 395.526 99.6932C396.079 100.049 396.512 100.562 396.827 101.233C397.145 101.903 397.304 102.71 397.304 103.653C397.304 104.597 397.147 105.405 396.832 106.08C396.518 106.75 396.086 107.267 395.537 107.631C394.988 107.991 394.361 108.17 393.656 108.17C393.126 108.17 392.692 108.081 392.355 107.903C392.022 107.725 391.761 107.517 391.571 107.278C391.382 107.04 391.236 106.828 391.134 106.642H391.031V111.273H389.332ZM390.997 103.636C390.997 104.25 391.086 104.788 391.264 105.25C391.442 105.712 391.7 106.074 392.037 106.335C392.374 106.593 392.787 106.722 393.276 106.722C393.783 106.722 394.207 106.587 394.548 106.318C394.889 106.045 395.147 105.676 395.321 105.21C395.499 104.744 395.588 104.22 395.588 103.636C395.588 103.061 395.501 102.544 395.327 102.085C395.156 101.627 394.899 101.265 394.554 101C394.213 100.735 393.787 100.602 393.276 100.602C392.783 100.602 392.367 100.729 392.026 100.983C391.689 101.237 391.433 101.591 391.259 102.045C391.084 102.5 390.997 103.03 390.997 103.636ZM403.281 99.2727V100.636H398.514V99.2727H403.281ZM399.793 97.1818H401.492V105.438C401.492 105.767 401.541 106.015 401.639 106.182C401.738 106.345 401.865 106.456 402.02 106.517C402.179 106.574 402.351 106.602 402.537 106.602C402.673 106.602 402.793 106.593 402.895 106.574C402.997 106.555 403.077 106.54 403.134 106.528L403.44 107.932C403.342 107.97 403.202 108.008 403.02 108.045C402.838 108.087 402.611 108.11 402.338 108.114C401.891 108.121 401.475 108.042 401.088 107.875C400.702 107.708 400.389 107.451 400.151 107.102C399.912 106.754 399.793 106.316 399.793 105.79V97.1818Z" fill="black"/>
<g clip-path="url(#clip2_3569_1410)">
<path d="M332.081 5V68H395.081V5H332.081ZM366.365 54.1344C366.365 60.2656 362.765 63.0641 357.52 63.0641C352.781 63.0641 350.039 60.6172 348.633 57.65L353.456 54.7391C354.384 56.3844 355.228 57.7766 357.267 57.7766C359.208 57.7766 360.445 57.0172 360.445 54.05V33.9266H366.365V54.1344ZM380.372 63.0641C374.873 63.0641 371.315 60.4484 369.586 57.0172L374.409 54.2328C375.675 56.3 377.334 57.8328 380.245 57.8328C382.692 57.8328 384.267 56.6094 384.267 54.9078C384.267 52.8828 382.664 52.1656 379.95 50.9703L378.473 50.3375C374.198 48.5234 371.372 46.2313 371.372 41.4078C371.372 36.9641 374.761 33.5891 380.034 33.5891C383.803 33.5891 386.503 34.8969 388.444 38.3281L383.831 41.2812C382.819 39.4672 381.722 38.75 380.02 38.75C378.29 38.75 377.194 39.8469 377.194 41.2812C377.194 43.0531 378.29 43.7703 380.836 44.8813L382.312 45.5141C387.347 47.6656 390.173 49.8734 390.173 54.8234C390.173 60.1391 385.983 63.0641 380.372 63.0641Z" fill="black"/>
</g>
<path d="M459.878 99.4205C459.817 98.8826 459.567 98.4659 459.128 98.1705C458.689 97.8712 458.136 97.7216 457.469 97.7216C456.992 97.7216 456.579 97.7973 456.23 97.9489C455.882 98.0966 455.611 98.3011 455.418 98.5625C455.228 98.8201 455.134 99.1136 455.134 99.4432C455.134 99.7197 455.198 99.9583 455.327 100.159C455.459 100.36 455.632 100.528 455.844 100.665C456.06 100.797 456.291 100.909 456.537 101C456.783 101.087 457.02 101.159 457.247 101.216L458.384 101.511C458.755 101.602 459.136 101.725 459.526 101.881C459.916 102.036 460.278 102.241 460.611 102.494C460.944 102.748 461.213 103.062 461.418 103.438C461.626 103.812 461.73 104.261 461.73 104.784C461.73 105.443 461.56 106.028 461.219 106.54C460.882 107.051 460.391 107.455 459.747 107.75C459.107 108.045 458.332 108.193 457.423 108.193C456.552 108.193 455.798 108.055 455.162 107.778C454.526 107.502 454.028 107.11 453.668 106.602C453.308 106.091 453.109 105.485 453.071 104.784H454.832C454.867 105.205 455.003 105.555 455.242 105.835C455.484 106.112 455.793 106.318 456.168 106.455C456.546 106.587 456.961 106.653 457.412 106.653C457.908 106.653 458.35 106.576 458.736 106.42C459.126 106.261 459.433 106.042 459.656 105.761C459.88 105.477 459.992 105.146 459.992 104.767C459.992 104.422 459.893 104.14 459.696 103.92C459.503 103.701 459.24 103.519 458.906 103.375C458.577 103.231 458.204 103.104 457.787 102.994L456.412 102.619C455.48 102.366 454.742 101.992 454.196 101.5C453.654 101.008 453.384 100.356 453.384 99.5455C453.384 98.875 453.565 98.2898 453.929 97.7898C454.293 97.2898 454.785 96.9015 455.406 96.625C456.028 96.3447 456.728 96.2045 457.509 96.2045C458.296 96.2045 458.992 96.3428 459.594 96.6193C460.2 96.8958 460.677 97.2765 461.026 97.7614C461.374 98.2424 461.556 98.7955 461.571 99.4205H459.878ZM473.493 100.148H471.72C471.652 99.7689 471.525 99.4356 471.34 99.1477C471.154 98.8598 470.927 98.6155 470.658 98.4148C470.389 98.214 470.088 98.0625 469.754 97.9602C469.425 97.858 469.074 97.8068 468.703 97.8068C468.033 97.8068 467.432 97.9754 466.902 98.3125C466.376 98.6496 465.959 99.1439 465.652 99.7955C465.349 100.447 465.198 101.242 465.198 102.182C465.198 103.129 465.349 103.928 465.652 104.58C465.959 105.231 466.377 105.723 466.908 106.057C467.438 106.39 468.035 106.557 468.698 106.557C469.065 106.557 469.413 106.508 469.743 106.409C470.076 106.307 470.377 106.157 470.646 105.96C470.915 105.763 471.143 105.523 471.328 105.239C471.518 104.951 471.648 104.621 471.72 104.25L473.493 104.256C473.398 104.828 473.215 105.354 472.942 105.835C472.673 106.312 472.326 106.725 471.902 107.074C471.482 107.419 471.001 107.686 470.459 107.875C469.917 108.064 469.326 108.159 468.686 108.159C467.679 108.159 466.781 107.92 465.993 107.443C465.205 106.962 464.584 106.275 464.129 105.381C463.679 104.487 463.453 103.42 463.453 102.182C463.453 100.939 463.68 99.8731 464.135 98.983C464.59 98.089 465.211 97.4034 465.999 96.9261C466.787 96.4451 467.682 96.2045 468.686 96.2045C469.304 96.2045 469.879 96.2936 470.413 96.4716C470.951 96.6458 471.434 96.9034 471.862 97.2443C472.29 97.5814 472.645 97.9943 472.925 98.483C473.205 98.9678 473.395 99.5227 473.493 100.148ZM481.94 99.4205C481.88 98.8826 481.63 98.4659 481.19 98.1705C480.751 97.8712 480.198 97.7216 479.531 97.7216C479.054 97.7216 478.641 97.7973 478.293 97.9489C477.944 98.0966 477.673 98.3011 477.48 98.5625C477.291 98.8201 477.196 99.1136 477.196 99.4432C477.196 99.7197 477.261 99.9583 477.389 100.159C477.522 100.36 477.694 100.528 477.906 100.665C478.122 100.797 478.353 100.909 478.6 101C478.846 101.087 479.082 101.159 479.31 101.216L480.446 101.511C480.817 101.602 481.198 101.725 481.588 101.881C481.978 102.036 482.34 102.241 482.673 102.494C483.007 102.748 483.276 103.062 483.48 103.438C483.689 103.812 483.793 104.261 483.793 104.784C483.793 105.443 483.622 106.028 483.281 106.54C482.944 107.051 482.454 107.455 481.81 107.75C481.17 108.045 480.395 108.193 479.486 108.193C478.615 108.193 477.861 108.055 477.225 107.778C476.588 107.502 476.09 107.11 475.73 106.602C475.37 106.091 475.171 105.485 475.134 104.784H476.895C476.929 105.205 477.065 105.555 477.304 105.835C477.546 106.112 477.855 106.318 478.23 106.455C478.609 106.587 479.024 106.653 479.475 106.653C479.971 106.653 480.412 106.576 480.798 106.42C481.189 106.261 481.495 106.042 481.719 105.761C481.942 105.477 482.054 105.146 482.054 104.767C482.054 104.422 481.956 104.14 481.759 103.92C481.565 103.701 481.302 103.519 480.969 103.375C480.639 103.231 480.266 103.104 479.85 102.994L478.475 102.619C477.543 102.366 476.804 101.992 476.259 101.5C475.717 101.008 475.446 100.356 475.446 99.5455C475.446 98.875 475.628 98.2898 475.992 97.7898C476.355 97.2898 476.848 96.9015 477.469 96.625C478.09 96.3447 478.791 96.2045 479.571 96.2045C480.359 96.2045 481.054 96.3428 481.656 96.6193C482.262 96.8958 482.74 97.2765 483.088 97.7614C483.437 98.2424 483.618 98.7955 483.634 99.4205H481.94ZM492.237 99.4205C492.177 98.8826 491.927 98.4659 491.487 98.1705C491.048 97.8712 490.495 97.7216 489.828 97.7216C489.351 97.7216 488.938 97.7973 488.59 97.9489C488.241 98.0966 487.97 98.3011 487.777 98.5625C487.588 98.8201 487.493 99.1136 487.493 99.4432C487.493 99.7197 487.557 99.9583 487.686 100.159C487.819 100.36 487.991 100.528 488.203 100.665C488.419 100.797 488.65 100.909 488.896 101C489.143 101.087 489.379 101.159 489.607 101.216L490.743 101.511C491.114 101.602 491.495 101.725 491.885 101.881C492.275 102.036 492.637 102.241 492.97 102.494C493.304 102.748 493.573 103.062 493.777 103.438C493.985 103.812 494.09 104.261 494.09 104.784C494.09 105.443 493.919 106.028 493.578 106.54C493.241 107.051 492.751 107.455 492.107 107.75C491.466 108.045 490.692 108.193 489.783 108.193C488.912 108.193 488.158 108.055 487.521 107.778C486.885 107.502 486.387 107.11 486.027 106.602C485.667 106.091 485.468 105.485 485.43 104.784H487.192C487.226 105.205 487.362 105.555 487.601 105.835C487.843 106.112 488.152 106.318 488.527 106.455C488.906 106.587 489.321 106.653 489.771 106.653C490.268 106.653 490.709 106.576 491.095 106.42C491.485 106.261 491.792 106.042 492.016 105.761C492.239 105.477 492.351 105.146 492.351 104.767C492.351 104.422 492.252 104.14 492.055 103.92C491.862 103.701 491.599 103.519 491.266 103.375C490.936 103.231 490.563 103.104 490.146 102.994L488.771 102.619C487.84 102.366 487.101 101.992 486.555 101.5C486.014 101.008 485.743 100.356 485.743 99.5455C485.743 98.875 485.925 98.2898 486.288 97.7898C486.652 97.2898 487.145 96.9015 487.766 96.625C488.387 96.3447 489.088 96.2045 489.868 96.2045C490.656 96.2045 491.351 96.3428 491.953 96.6193C492.559 96.8958 493.037 97.2765 493.385 97.7614C493.734 98.2424 493.915 98.7955 493.93 99.4205H492.237Z" fill="black"/>
<path d="M473.939 39.1531C472.932 39.6159 471.828 40.2189 469.62 41.4311C468.782 41.9022 467.907 42.3733 467.092 42.8172C467.036 42.7607 466.977 42.6895 466.921 42.6309C462.551 37.9618 454.469 34.6641 454.813 28.3934C454.94 26.1091 455.725 20.1126 470.334 12.8305C482.356 6.90521 491.922 8.54671 493.574 12.1877C495.948 17.3781 488.447 27.0366 476.031 28.4373C474.656 28.7161 473.237 28.6824 471.878 28.3388C470.519 27.9953 469.254 27.3506 468.177 26.4525C467.52 25.7385 467.421 25.6966 467.178 25.839C466.778 26.0484 467.036 26.6953 467.178 27.0659C467.652 27.9234 468.293 28.6772 469.063 29.2828C469.833 29.8885 470.716 30.3335 471.661 30.5918C476.547 31.6479 481.641 31.1433 486.225 29.1492C493.75 26.2368 499.625 18.1403 497.904 11.3523C496.177 4.47018 484.753 2.20055 473.945 6.04049C467.177 8.32141 460.923 11.912 455.541 16.6076C449.587 22.177 448.644 27.0178 449.03 29.0445C450.416 36.2407 460.336 40.9245 464.314 44.3938C464.105 44.509 463.929 44.6032 463.772 44.6932C461.787 45.6794 454.22 49.6345 452.334 53.8178C450.192 58.558 452.677 61.9562 454.318 62.4126C456.792 63.0052 459.389 62.8104 461.747 61.8554C464.105 60.9005 466.105 59.2331 467.469 57.0861C468.628 55.3057 469.339 53.2719 469.543 51.1577C469.747 49.0434 469.437 46.9112 468.64 44.9424C469.11 44.5673 469.612 44.2331 470.139 43.9436C471.152 43.3448 472.117 42.7544 472.974 42.298C475.906 40.9246 479.106 40.2174 482.343 40.2272C489.14 41.0271 490.482 45.2669 490.224 47.0529C490.104 47.6865 489.849 48.287 489.477 48.8139C489.105 49.3409 488.624 49.782 488.068 50.1076C487.597 50.4071 487.439 50.5076 487.481 50.7211C487.538 51.0352 487.766 51.0205 488.166 50.964C489.187 50.6413 490.087 50.0172 490.747 49.1738C491.407 48.3304 491.796 47.3071 491.864 46.2384C492.073 42.0509 488.08 37.4572 481.012 37.4991C478.895 37.5027 476.8 37.9202 474.843 38.7281C474.529 38.8579 474.224 38.9975 473.929 39.1469L473.939 39.1531ZM463.837 55.5661C461.58 58.022 458.439 58.9496 457.082 58.1644C455.617 57.3269 456.197 53.6942 458.967 51.0959C460.607 49.6177 462.38 48.2938 464.264 47.1408C464.592 46.9314 465.078 46.6551 465.662 46.3033L465.819 46.2175L466.163 46.0081C466.657 47.6645 466.702 49.4224 466.293 51.1018C465.884 52.7813 465.037 54.3219 463.837 55.5661Z" fill="black"/>
<path d="M567.625 108V96.3636H571.886C572.712 96.3636 573.396 96.5 573.938 96.7727C574.479 97.0417 574.885 97.4072 575.153 97.8693C575.422 98.3277 575.557 98.8447 575.557 99.4205C575.557 99.9053 575.468 100.314 575.29 100.648C575.112 100.977 574.873 101.242 574.574 101.443C574.278 101.64 573.953 101.784 573.597 101.875V101.989C573.983 102.008 574.36 102.133 574.727 102.364C575.099 102.591 575.405 102.915 575.648 103.335C575.89 103.756 576.011 104.267 576.011 104.869C576.011 105.464 575.871 105.998 575.591 106.472C575.314 106.941 574.886 107.314 574.307 107.591C573.727 107.864 572.987 108 572.085 108H567.625ZM569.381 106.494H571.915C572.756 106.494 573.358 106.331 573.722 106.006C574.085 105.68 574.267 105.273 574.267 104.784C574.267 104.417 574.174 104.08 573.989 103.773C573.803 103.466 573.538 103.222 573.193 103.04C572.852 102.858 572.447 102.767 571.977 102.767H569.381V106.494ZM569.381 101.398H571.733C572.127 101.398 572.481 101.322 572.796 101.17C573.114 101.019 573.366 100.807 573.551 100.534C573.741 100.258 573.835 99.9318 573.835 99.5568C573.835 99.0758 573.667 98.6723 573.33 98.3466C572.993 98.0208 572.475 97.858 571.778 97.858H569.381V101.398ZM578.094 108V96.3636H585.389V97.875H579.85V101.42H585.009V102.926H579.85V106.489H585.457V108H578.094ZM587.734 96.3636H589.865L593.57 105.409H593.706L597.411 96.3636H599.541V108H597.871V99.5795H597.763L594.331 107.983H592.945L589.513 99.5739H589.405V108H587.734V96.3636Z" fill="black"/>
<g clip-path="url(#clip3_3569_1410)">
<path d="M550.081 10.3319H565.511V15.8951H550.081V10.3319ZM550.081 0H565.511V5.56321H550.081V0ZM577.765 20.5842H550.081V26.1474H576.728C579.645 26.1474 586.452 26.2267 588.981 31.2337V28.1343C587.749 23.2066 584.118 20.5842 577.765 20.5842H577.765ZM577.829 30.9158H550.081V36.479H576.728C583.211 36.479 587.295 36.7969 588.981 37.9097V35.4458C587.684 31.5516 582.238 30.9158 577.83 30.9158H577.829ZM577.765 57.1425H550.081V51.5793H576.728C579.645 51.5793 586.452 51.4999 588.981 46.4929V49.5923C587.749 54.52 584.118 57.1425 577.765 57.1425H577.765ZM577.829 46.8109H550.081V41.2477H576.728C583.211 41.2477 587.295 40.9297 588.981 39.817V42.2808C587.684 46.175 582.238 46.8109 577.83 46.8109H577.829ZM595.723 66.7592H616.081V63.3415H596.307C594.556 63.3415 590.407 63.2622 588.916 60.3215V62.2291C589.629 65.1695 591.834 66.7592 595.723 66.7592ZM595.659 60.4805H616.016V57.0631H596.307C592.352 57.0631 589.888 56.9042 588.916 56.189V57.699C589.694 60.0832 593 60.4805 595.658 60.4805H595.659Z" fill="black"/>
</g>
<path d="M672.492 108V96.3636H676.64C677.542 96.3636 678.29 96.5189 678.884 96.8295C679.483 97.1402 679.93 97.5701 680.225 98.1193C680.521 98.6648 680.668 99.2955 680.668 100.011C680.668 100.723 680.519 101.35 680.22 101.892C679.924 102.43 679.477 102.848 678.879 103.148C678.284 103.447 677.536 103.597 676.634 103.597H673.492V102.085H676.475C677.043 102.085 677.506 102.004 677.862 101.841C678.221 101.678 678.485 101.441 678.651 101.131C678.818 100.82 678.901 100.447 678.901 100.011C678.901 99.572 678.816 99.1913 678.646 98.8693C678.479 98.5473 678.216 98.3011 677.856 98.1307C677.5 97.9564 677.032 97.8693 676.453 97.8693H674.248V108H672.492ZM678.237 102.75L681.112 108H679.112L676.293 102.75H678.237ZM686.32 108.176C685.461 108.176 684.72 107.992 684.099 107.625C683.481 107.254 683.004 106.733 682.667 106.062C682.334 105.388 682.167 104.598 682.167 103.693C682.167 102.799 682.334 102.011 682.667 101.33C683.004 100.648 683.474 100.116 684.076 99.733C684.682 99.3504 685.39 99.1591 686.201 99.1591C686.694 99.1591 687.171 99.2405 687.633 99.4034C688.095 99.5663 688.51 99.822 688.877 100.17C689.245 100.519 689.534 100.972 689.747 101.528C689.959 102.081 690.065 102.754 690.065 103.545V104.148H683.127V102.875H688.4C688.4 102.428 688.309 102.032 688.127 101.688C687.945 101.339 687.69 101.064 687.36 100.864C687.034 100.663 686.652 100.562 686.212 100.562C685.735 100.562 685.319 100.68 684.962 100.915C684.61 101.146 684.337 101.449 684.144 101.824C683.955 102.195 683.86 102.598 683.86 103.034V104.028C683.86 104.612 683.962 105.108 684.167 105.517C684.375 105.926 684.665 106.239 685.036 106.455C685.408 106.667 685.841 106.773 686.337 106.773C686.659 106.773 686.953 106.727 687.218 106.636C687.483 106.542 687.712 106.402 687.906 106.216C688.099 106.03 688.247 105.801 688.349 105.528L689.957 105.818C689.828 106.292 689.597 106.706 689.264 107.062C688.934 107.415 688.519 107.689 688.019 107.886C687.523 108.08 686.957 108.176 686.32 108.176ZM694.489 108.193C693.936 108.193 693.436 108.091 692.989 107.886C692.542 107.678 692.188 107.377 691.927 106.983C691.669 106.589 691.541 106.106 691.541 105.534C691.541 105.042 691.635 104.636 691.825 104.318C692.014 104 692.27 103.748 692.592 103.562C692.914 103.377 693.274 103.237 693.671 103.142C694.069 103.047 694.474 102.975 694.887 102.926C695.41 102.866 695.834 102.816 696.16 102.778C696.486 102.737 696.722 102.67 696.87 102.58C697.018 102.489 697.092 102.341 697.092 102.136V102.097C697.092 101.6 696.952 101.216 696.671 100.943C696.395 100.67 695.982 100.534 695.433 100.534C694.861 100.534 694.41 100.661 694.08 100.915C693.755 101.165 693.529 101.443 693.404 101.75L691.808 101.386C691.997 100.856 692.274 100.428 692.637 100.102C693.005 99.7727 693.427 99.5341 693.904 99.3864C694.381 99.2348 694.883 99.1591 695.41 99.1591C695.758 99.1591 696.128 99.2008 696.518 99.2841C696.912 99.3636 697.279 99.5114 697.62 99.7273C697.965 99.9432 698.247 100.252 698.467 100.653C698.686 101.051 698.796 101.568 698.796 102.205V108H697.137V106.807H697.069C696.959 107.027 696.794 107.242 696.575 107.455C696.355 107.667 696.073 107.843 695.728 107.983C695.383 108.123 694.97 108.193 694.489 108.193ZM694.859 106.83C695.328 106.83 695.73 106.737 696.063 106.551C696.4 106.366 696.656 106.123 696.83 105.824C697.008 105.521 697.097 105.197 697.097 104.852V103.727C697.037 103.788 696.919 103.845 696.745 103.898C696.575 103.947 696.38 103.991 696.16 104.028C695.94 104.062 695.726 104.095 695.518 104.125C695.31 104.152 695.135 104.174 694.995 104.193C694.666 104.235 694.364 104.305 694.092 104.403C693.823 104.502 693.607 104.644 693.444 104.83C693.285 105.011 693.205 105.254 693.205 105.557C693.205 105.977 693.361 106.295 693.671 106.511C693.982 106.723 694.378 106.83 694.859 106.83ZM704.735 108.176C703.89 108.176 703.163 107.985 702.553 107.602C701.947 107.216 701.481 106.684 701.156 106.006C700.83 105.328 700.667 104.551 700.667 103.676C700.667 102.79 700.834 102.008 701.167 101.33C701.5 100.648 701.97 100.116 702.576 99.733C703.182 99.3504 703.896 99.1591 704.718 99.1591C705.381 99.1591 705.972 99.2822 706.491 99.5284C707.01 99.7708 707.428 100.112 707.747 100.551C708.069 100.991 708.26 101.504 708.32 102.091H706.667C706.576 101.682 706.368 101.33 706.042 101.034C705.72 100.739 705.288 100.591 704.747 100.591C704.273 100.591 703.858 100.716 703.502 100.966C703.15 101.212 702.875 101.564 702.678 102.023C702.481 102.477 702.383 103.015 702.383 103.636C702.383 104.273 702.479 104.822 702.673 105.284C702.866 105.746 703.139 106.104 703.491 106.358C703.847 106.612 704.265 106.739 704.747 106.739C705.069 106.739 705.36 106.68 705.622 106.562C705.887 106.441 706.108 106.269 706.286 106.045C706.468 105.822 706.595 105.553 706.667 105.239H708.32C708.26 105.803 708.076 106.307 707.769 106.75C707.462 107.193 707.051 107.542 706.536 107.795C706.025 108.049 705.425 108.176 704.735 108.176ZM714.211 99.2727V100.636H709.444V99.2727H714.211ZM710.722 97.1818H712.421V105.438C712.421 105.767 712.47 106.015 712.569 106.182C712.667 106.345 712.794 106.456 712.95 106.517C713.109 106.574 713.281 106.602 713.467 106.602C713.603 106.602 713.722 106.593 713.825 106.574C713.927 106.555 714.006 106.54 714.063 106.528L714.37 107.932C714.272 107.97 714.131 108.008 713.95 108.045C713.768 108.087 713.541 108.11 713.268 108.114C712.821 108.121 712.404 108.042 712.018 107.875C711.631 107.708 711.319 107.451 711.08 107.102C710.842 106.754 710.722 106.316 710.722 105.79V97.1818Z" fill="black"/>
<g clip-path="url(#clip4_3569_1410)">
<path d="M729.081 35.067C729.081 30.297 723.108 25.776 713.949 22.974C716.064 13.641 715.125 6.213 710.985 3.834C709.982 3.27216 708.847 2.98936 707.697 3.015V6.285C708.372 6.285 708.915 6.42 709.371 6.669C711.366 7.815 712.233 12.171 711.558 17.778C711.396 19.158 711.132 20.61 710.808 22.092C707.741 21.3529 704.628 20.8187 701.49 20.493C699.621 17.9139 697.581 15.4624 695.385 13.155C700.17 8.709 704.661 6.273 707.715 6.273V3C703.677 3 698.394 5.877 693.051 10.866C687.711 5.91 682.425 3.06 678.39 3.06V6.33C681.429 6.33 685.935 8.754 690.72 13.17C688.665 15.33 686.61 17.778 684.657 20.493C681.513 20.8151 678.394 21.3544 675.324 22.107C675 20.7024 674.744 19.2827 674.559 17.853C673.869 12.243 674.721 7.887 676.704 6.729C677.142 6.465 677.715 6.345 678.39 6.345V3.075C677.16 3.075 676.041 3.339 675.075 3.894C670.95 6.273 670.026 13.683 672.153 22.989C663.024 25.809 657.081 30.312 657.081 35.067C657.081 39.837 663.054 44.358 672.213 47.157C670.098 56.493 671.037 63.921 675.177 66.297C676.131 66.855 677.247 67.119 678.477 67.119C682.515 67.119 687.798 64.242 693.141 59.253C698.481 64.212 703.764 67.059 707.802 67.059C708.96 67.0835 710.104 66.7998 711.117 66.237C715.242 63.861 716.166 56.451 714.039 47.145C723.138 44.343 729.081 39.822 729.081 35.067ZM709.971 25.278C709.401 27.2396 708.74 29.1736 707.991 31.074C706.765 28.6883 705.418 26.3663 703.956 24.117C706.041 24.426 708.051 24.807 709.974 25.278H709.971ZM703.251 40.908C702.152 42.8264 700.972 44.6971 699.714 46.515C695.311 46.9031 690.882 46.9081 686.478 46.53C683.952 42.9215 681.743 39.1013 679.875 35.112C681.74 31.1133 683.94 27.2796 686.451 23.652C690.853 23.2631 695.281 23.2571 699.684 23.634C700.902 25.38 702.093 27.246 703.236 29.214C704.352 31.134 705.366 33.084 706.29 35.052C705.356 37.0439 704.342 38.9974 703.251 40.908ZM707.991 39C708.783 40.965 709.461 42.933 710.016 44.841C708.096 45.312 706.068 45.708 703.971 46.014C705.427 43.7443 706.768 41.4034 707.991 39ZM693.111 54.66C691.746 53.25 690.381 51.681 689.031 49.962C690.351 50.022 691.701 50.067 693.066 50.067C694.446 50.067 695.811 50.037 697.146 49.962C695.826 51.681 694.461 53.25 693.111 54.66ZM682.191 46.014C680.168 45.7209 678.16 45.3345 676.173 44.856C676.716 42.963 677.391 41.01 678.153 39.06C678.756 40.23 679.389 41.406 680.079 42.582C680.769 43.755 681.471 44.901 682.191 46.014ZM693.036 15.474C694.401 16.884 695.766 18.453 697.116 20.172C695.796 20.112 694.446 20.067 693.081 20.067C691.701 20.067 690.336 20.097 689.001 20.172C690.321 18.453 691.686 16.884 693.036 15.474ZM682.176 24.12C680.721 26.3848 679.379 28.7207 678.156 31.119C677.386 29.2064 676.71 27.257 676.131 25.278C678.051 24.822 680.079 24.426 682.176 24.12ZM668.895 42.492C663.699 40.278 660.339 37.371 660.339 35.067C660.339 32.763 663.699 29.841 668.895 27.642C670.155 27.099 671.535 26.613 672.96 26.16C673.797 29.034 674.898 32.028 676.26 35.097C674.974 37.9836 673.887 40.9544 673.005 43.989C671.611 43.5575 670.24 43.0579 668.895 42.492ZM676.791 63.462C674.796 62.322 673.929 57.96 674.604 52.356C674.766 50.976 675.03 49.521 675.354 48.039C678.228 48.744 681.369 49.287 684.672 49.641C686.542 52.2201 688.581 54.6715 690.777 56.979C685.992 61.425 681.501 63.861 678.447 63.861C677.871 63.8673 677.302 63.7313 676.791 63.465V63.462ZM711.603 52.281C712.293 57.888 711.441 62.247 709.458 63.405C709.02 63.669 708.447 63.786 707.772 63.786C704.733 63.786 700.227 61.365 695.442 56.946C697.629 54.6482 699.655 52.2024 701.505 49.626C704.65 49.3039 707.768 48.7646 710.838 48.012C711.177 49.494 711.438 50.916 711.603 52.281ZM717.252 42.492C715.992 43.035 714.612 43.521 713.187 43.974C712.29 40.924 711.187 37.9381 709.887 35.037C711.237 31.986 712.32 29.007 713.142 26.145C714.54 26.578 715.917 27.0775 717.267 27.642C722.463 29.856 725.823 32.763 725.823 35.067C725.808 37.371 722.448 40.293 717.252 42.492Z" fill="black"/>
<path d="M693.066 41.775C694.845 41.775 696.551 41.0683 697.809 39.8103C699.067 38.5523 699.774 36.8461 699.774 35.067C699.774 33.2879 699.067 31.5817 697.809 30.3237C696.551 29.0657 694.845 28.359 693.066 28.359C691.287 28.359 689.581 29.0657 688.323 30.3237C687.065 31.5817 686.358 33.2879 686.358 35.067C686.358 36.8461 687.065 38.5523 688.323 39.8103C689.581 41.0683 691.287 41.775 693.066 41.775Z" fill="black"/>
</g>
<path d="M791.109 96.3636H792.859V104.614C792.859 105.36 792.711 105.998 792.416 106.528C792.124 107.059 791.713 107.464 791.183 107.744C790.652 108.021 790.031 108.159 789.319 108.159C788.664 108.159 788.075 108.04 787.552 107.801C787.033 107.562 786.622 107.216 786.319 106.761C786.02 106.303 785.87 105.746 785.87 105.091H787.614C787.614 105.413 787.688 105.691 787.836 105.926C787.988 106.161 788.194 106.345 788.455 106.477C788.72 106.606 789.024 106.67 789.364 106.67C789.736 106.67 790.05 106.593 790.308 106.438C790.569 106.278 790.768 106.045 790.904 105.739C791.041 105.432 791.109 105.057 791.109 104.614V96.3636ZM797.818 108.193C797.265 108.193 796.765 108.091 796.318 107.886C795.871 107.678 795.516 107.377 795.255 106.983C794.997 106.589 794.869 106.106 794.869 105.534C794.869 105.042 794.963 104.636 795.153 104.318C795.342 104 795.598 103.748 795.92 103.562C796.242 103.377 796.602 103.237 796.999 103.142C797.397 103.047 797.802 102.975 798.215 102.926C798.738 102.866 799.162 102.816 799.488 102.778C799.814 102.737 800.051 102.67 800.198 102.58C800.346 102.489 800.42 102.341 800.42 102.136V102.097C800.42 101.6 800.28 101.216 799.999 100.943C799.723 100.67 799.31 100.534 798.761 100.534C798.189 100.534 797.738 100.661 797.408 100.915C797.083 101.165 796.857 101.443 796.732 101.75L795.136 101.386C795.325 100.856 795.602 100.428 795.965 100.102C796.333 99.7727 796.755 99.5341 797.232 99.3864C797.71 99.2348 798.211 99.1591 798.738 99.1591C799.086 99.1591 799.456 99.2008 799.846 99.2841C800.24 99.3636 800.607 99.5114 800.948 99.7273C801.293 99.9432 801.575 100.252 801.795 100.653C802.015 101.051 802.124 101.568 802.124 102.205V108H800.465V106.807H800.397C800.287 107.027 800.122 107.242 799.903 107.455C799.683 107.667 799.401 107.843 799.056 107.983C798.711 108.123 798.299 108.193 797.818 108.193ZM798.187 106.83C798.657 106.83 799.058 106.737 799.391 106.551C799.729 106.366 799.984 106.123 800.158 105.824C800.337 105.521 800.426 105.197 800.426 104.852V103.727C800.365 103.788 800.247 103.845 800.073 103.898C799.903 103.947 799.708 103.991 799.488 104.028C799.268 104.062 799.054 104.095 798.846 104.125C798.638 104.152 798.463 104.174 798.323 104.193C797.994 104.235 797.693 104.305 797.42 104.403C797.151 104.502 796.935 104.644 796.772 104.83C796.613 105.011 796.533 105.254 796.533 105.557C796.533 105.977 796.689 106.295 796.999 106.511C797.31 106.723 797.706 106.83 798.187 106.83ZM811.541 99.2727L808.376 108H806.558L803.387 99.2727H805.211L807.421 105.989H807.512L809.717 99.2727H811.541ZM815.427 108.193C814.874 108.193 814.374 108.091 813.927 107.886C813.48 107.678 813.126 107.377 812.864 106.983C812.607 106.589 812.478 106.106 812.478 105.534C812.478 105.042 812.573 104.636 812.762 104.318C812.952 104 813.207 103.748 813.529 103.562C813.851 103.377 814.211 103.237 814.609 103.142C815.006 103.047 815.412 102.975 815.825 102.926C816.347 102.866 816.772 102.816 817.097 102.778C817.423 102.737 817.66 102.67 817.808 102.58C817.955 102.489 818.029 102.341 818.029 102.136V102.097C818.029 101.6 817.889 101.216 817.609 100.943C817.332 100.67 816.919 100.534 816.37 100.534C815.798 100.534 815.347 100.661 815.018 100.915C814.692 101.165 814.467 101.443 814.342 101.75L812.745 101.386C812.935 100.856 813.211 100.428 813.575 100.102C813.942 99.7727 814.364 99.5341 814.842 99.3864C815.319 99.2348 815.821 99.1591 816.347 99.1591C816.696 99.1591 817.065 99.2008 817.455 99.2841C817.849 99.3636 818.217 99.5114 818.558 99.7273C818.902 99.9432 819.185 100.252 819.404 100.653C819.624 101.051 819.734 101.568 819.734 102.205V108H818.075V106.807H818.006C817.897 107.027 817.732 107.242 817.512 107.455C817.292 107.667 817.01 107.843 816.666 107.983C816.321 108.123 815.908 108.193 815.427 108.193ZM815.796 106.83C816.266 106.83 816.667 106.737 817.001 106.551C817.338 106.366 817.594 106.123 817.768 105.824C817.946 105.521 818.035 105.197 818.035 104.852V103.727C817.974 103.788 817.857 103.845 817.683 103.898C817.512 103.947 817.317 103.991 817.097 104.028C816.878 104.062 816.664 104.095 816.455 104.125C816.247 104.152 816.073 104.174 815.933 104.193C815.603 104.235 815.302 104.305 815.029 104.403C814.76 104.502 814.544 104.644 814.381 104.83C814.222 105.011 814.143 105.254 814.143 105.557C814.143 105.977 814.298 106.295 814.609 106.511C814.919 106.723 815.315 106.83 815.796 106.83Z" fill="black"/>
<path d="M793.638 55.6763C793.638 55.6763 790.884 57.2805 795.593 57.8183C801.299 58.4753 804.217 58.383 810.499 57.186C810.499 57.186 812.149 58.23 814.459 59.1323C800.363 65.169 782.561 58.77 793.636 55.6763H793.638ZM791.912 47.8013C791.912 47.8013 788.818 50.085 793.53 50.5643C799.639 51.1965 804.44 51.2573 812.772 49.653C812.772 49.653 813.922 50.814 815.74 51.4553C798.7 56.4345 779.715 51.8423 791.914 47.8013H791.912ZM806.431 34.4318C809.899 38.4278 805.516 42.0255 805.516 42.0255C805.516 42.0255 814.329 37.4648 810.286 31.7723C806.503 26.451 803.596 23.8163 819.297 14.7083C819.297 14.7083 794.653 20.862 806.429 34.434L806.431 34.4318ZM825.066 61.5128C825.066 61.5128 827.107 63.1868 822.827 64.4895C814.693 66.9488 788.971 67.6868 781.823 64.5818C779.258 63.468 784.073 61.911 785.585 61.5938C787.167 61.2428 788.069 61.3148 788.069 61.3148C785.209 59.2988 769.601 65.2635 780.138 66.9735C808.884 71.6378 832.529 64.8765 825.066 61.5128ZM794.961 39.6338C794.961 39.6338 781.873 42.7388 790.319 43.8638C793.894 44.343 801.009 44.2395 807.642 43.677C813.053 43.218 818.494 42.246 818.494 42.246C818.494 42.246 816.583 43.065 815.2 44.0168C801.909 47.5088 776.236 45.8798 783.63 42.3068C789.876 39.294 794.961 39.6338 794.961 39.6338ZM818.433 52.758C831.933 45.7268 825.687 38.988 821.34 39.9038C820.271 40.113 819.792 40.3155 819.792 40.3155C819.792 40.3155 820.179 39.6923 820.942 39.4245C829.566 36.3893 836.199 48.3638 818.163 53.1113C818.163 53.1 818.377 52.9245 818.433 52.7603V52.758ZM810.288 0C810.288 0 817.767 7.47675 803.187 18.9833C791.505 28.2173 800.525 33.48 803.187 39.492C796.367 33.3383 791.363 27.927 794.716 22.887C799.648 15.4688 813.301 11.8823 810.288 0ZM796.284 71.7773C809.246 72.5963 829.154 71.3093 829.638 65.1803C829.638 65.1803 828.722 67.5 818.912 69.3495C807.851 71.4353 794.198 71.1878 786.1 69.8535C786.1 69.8535 787.765 71.2238 796.282 71.7773H796.284Z" fill="black"/>
<path d="M875.87 99.4205C875.81 98.8826 875.56 98.4659 875.12 98.1705C874.681 97.8712 874.128 97.7216 873.461 97.7216C872.984 97.7216 872.571 97.7973 872.222 97.9489C871.874 98.0966 871.603 98.3011 871.41 98.5625C871.22 98.8201 871.126 99.1136 871.126 99.4432C871.126 99.7197 871.19 99.9583 871.319 100.159C871.452 100.36 871.624 100.528 871.836 100.665C872.052 100.797 872.283 100.909 872.529 101C872.775 101.087 873.012 101.159 873.239 101.216L874.376 101.511C874.747 101.602 875.128 101.725 875.518 101.881C875.908 102.036 876.27 102.241 876.603 102.494C876.936 102.748 877.205 103.062 877.41 103.438C877.618 103.812 877.722 104.261 877.722 104.784C877.722 105.443 877.552 106.028 877.211 106.54C876.874 107.051 876.383 107.455 875.739 107.75C875.099 108.045 874.325 108.193 873.416 108.193C872.544 108.193 871.791 108.055 871.154 107.778C870.518 107.502 870.02 107.11 869.66 106.602C869.3 106.091 869.101 105.485 869.063 104.784H870.825C870.859 105.205 870.995 105.555 871.234 105.835C871.476 106.112 871.785 106.318 872.16 106.455C872.539 106.587 872.953 106.653 873.404 106.653C873.9 106.653 874.342 106.576 874.728 106.42C875.118 106.261 875.425 106.042 875.649 105.761C875.872 105.477 875.984 105.146 875.984 104.767C875.984 104.422 875.885 104.14 875.688 103.92C875.495 103.701 875.232 103.519 874.899 103.375C874.569 103.231 874.196 103.104 873.779 102.994L872.404 102.619C871.472 102.366 870.734 101.992 870.188 101.5C869.647 101.008 869.376 100.356 869.376 99.5455C869.376 98.875 869.558 98.2898 869.921 97.7898C870.285 97.2898 870.777 96.9015 871.399 96.625C872.02 96.3447 872.72 96.2045 873.501 96.2045C874.289 96.2045 874.984 96.3428 875.586 96.6193C876.192 96.8958 876.669 97.2765 877.018 97.7614C877.366 98.2424 877.548 98.7955 877.563 99.4205H875.87ZM879.684 111.273V99.2727H881.343V100.688H881.485C881.584 100.506 881.726 100.295 881.911 100.057C882.097 99.8182 882.354 99.6098 882.684 99.4318C883.014 99.25 883.449 99.1591 883.991 99.1591C884.695 99.1591 885.324 99.3371 885.877 99.6932C886.43 100.049 886.864 100.562 887.178 101.233C887.497 101.903 887.656 102.71 887.656 103.653C887.656 104.597 887.498 105.405 887.184 106.08C886.87 106.75 886.438 107.267 885.889 107.631C885.339 107.991 884.712 108.17 884.008 108.17C883.478 108.17 883.044 108.081 882.707 107.903C882.373 107.725 882.112 107.517 881.923 107.278C881.733 107.04 881.587 106.828 881.485 106.642H881.383V111.273H879.684ZM881.349 103.636C881.349 104.25 881.438 104.788 881.616 105.25C881.794 105.712 882.051 106.074 882.389 106.335C882.726 106.593 883.139 106.722 883.627 106.722C884.135 106.722 884.559 106.587 884.9 106.318C885.241 106.045 885.498 105.676 885.673 105.21C885.851 104.744 885.94 104.22 885.94 103.636C885.94 103.061 885.853 102.544 885.678 102.085C885.508 101.627 885.25 101.265 884.906 101C884.565 100.735 884.139 100.602 883.627 100.602C883.135 100.602 882.718 100.729 882.377 100.983C882.04 101.237 881.784 101.591 881.61 102.045C881.436 102.5 881.349 103.03 881.349 103.636ZM889.559 108V99.2727H891.201V100.659H891.292C891.451 100.189 891.731 99.8201 892.133 99.5511C892.538 99.2784 892.997 99.142 893.508 99.142C893.614 99.142 893.739 99.1458 893.883 99.1534C894.031 99.161 894.146 99.1705 894.229 99.1818V100.807C894.161 100.788 894.04 100.767 893.866 100.744C893.692 100.718 893.517 100.705 893.343 100.705C892.942 100.705 892.584 100.79 892.269 100.96C891.959 101.127 891.712 101.36 891.531 101.659C891.349 101.955 891.258 102.292 891.258 102.67V108H889.559ZM895.7 108V99.2727H897.399V108H895.7ZM896.558 97.9261C896.262 97.9261 896.008 97.8277 895.796 97.6307C895.588 97.4299 895.484 97.1913 895.484 96.9148C895.484 96.6345 895.588 96.3958 895.796 96.1989C896.008 95.9981 896.262 95.8977 896.558 95.8977C896.853 95.8977 897.105 95.9981 897.313 96.1989C897.525 96.3958 897.631 96.6345 897.631 96.9148C897.631 97.1913 897.525 97.4299 897.313 97.6307C897.105 97.8277 896.853 97.9261 896.558 97.9261ZM901.383 102.818V108H899.684V99.2727H901.315V100.693H901.423C901.623 100.231 901.938 99.8598 902.366 99.5795C902.798 99.2992 903.341 99.1591 903.997 99.1591C904.591 99.1591 905.112 99.2841 905.559 99.5341C906.006 99.7803 906.353 100.148 906.599 100.636C906.845 101.125 906.968 101.729 906.968 102.449V108H905.269V102.653C905.269 102.021 905.104 101.527 904.775 101.17C904.445 100.811 903.993 100.631 903.417 100.631C903.023 100.631 902.673 100.716 902.366 100.886C902.063 101.057 901.822 101.307 901.644 101.636C901.47 101.962 901.383 102.356 901.383 102.818ZM912.906 111.455C912.212 111.455 911.616 111.364 911.116 111.182C910.62 111 910.214 110.759 909.9 110.46C909.586 110.161 909.351 109.833 909.195 109.477L910.656 108.875C910.758 109.042 910.894 109.218 911.065 109.403C911.239 109.593 911.474 109.754 911.769 109.886C912.069 110.019 912.453 110.085 912.923 110.085C913.567 110.085 914.099 109.928 914.519 109.614C914.94 109.303 915.15 108.807 915.15 108.125V106.409H915.042C914.94 106.595 914.792 106.801 914.599 107.028C914.409 107.256 914.148 107.453 913.815 107.619C913.481 107.786 913.048 107.869 912.514 107.869C911.824 107.869 911.203 107.708 910.65 107.386C910.101 107.061 909.665 106.581 909.343 105.949C909.025 105.312 908.866 104.53 908.866 103.602C908.866 102.674 909.023 101.879 909.337 101.216C909.656 100.553 910.091 100.045 910.644 99.6932C911.197 99.3371 911.824 99.1591 912.525 99.1591C913.067 99.1591 913.504 99.25 913.837 99.4318C914.171 99.6098 914.43 99.8182 914.616 100.057C914.805 100.295 914.951 100.506 915.053 100.688H915.178V99.2727H916.843V108.193C916.843 108.943 916.669 109.559 916.32 110.04C915.972 110.521 915.5 110.877 914.906 111.108C914.315 111.339 913.648 111.455 912.906 111.455ZM912.889 106.46C913.377 106.46 913.79 106.347 914.127 106.119C914.468 105.888 914.726 105.559 914.9 105.131C915.078 104.699 915.167 104.182 915.167 103.58C915.167 102.992 915.08 102.475 914.906 102.028C914.731 101.581 914.476 101.233 914.139 100.983C913.801 100.729 913.385 100.602 912.889 100.602C912.377 100.602 911.951 100.735 911.61 101C911.269 101.261 911.012 101.617 910.837 102.068C910.667 102.519 910.582 103.023 910.582 103.58C910.582 104.152 910.669 104.653 910.843 105.085C911.017 105.517 911.275 105.854 911.616 106.097C911.961 106.339 912.385 106.46 912.889 106.46ZM923.492 108V96.3636H927.754C928.579 96.3636 929.263 96.5 929.805 96.7727C930.346 97.0417 930.752 97.4072 931.021 97.8693C931.29 98.3277 931.424 98.8447 931.424 99.4205C931.424 99.9053 931.335 100.314 931.157 100.648C930.979 100.977 930.74 101.242 930.441 101.443C930.146 101.64 929.82 101.784 929.464 101.875V101.989C929.85 102.008 930.227 102.133 930.595 102.364C930.966 102.591 931.273 102.915 931.515 103.335C931.757 103.756 931.879 104.267 931.879 104.869C931.879 105.464 931.738 105.998 931.458 106.472C931.182 106.941 930.754 107.314 930.174 107.591C929.595 107.864 928.854 108 927.953 108H923.492ZM925.248 106.494H927.782C928.623 106.494 929.225 106.331 929.589 106.006C929.953 105.68 930.134 105.273 930.134 104.784C930.134 104.417 930.042 104.08 929.856 103.773C929.67 103.466 929.405 103.222 929.06 103.04C928.72 102.858 928.314 102.767 927.845 102.767H925.248V106.494ZM925.248 101.398H927.6C927.994 101.398 928.348 101.322 928.663 101.17C928.981 101.019 929.233 100.807 929.418 100.534C929.608 100.258 929.703 99.9318 929.703 99.5568C929.703 99.0758 929.534 98.6723 929.197 98.3466C928.86 98.0208 928.343 97.858 927.646 97.858H925.248V101.398ZM937.501 108.176C936.683 108.176 935.969 107.989 935.359 107.614C934.749 107.239 934.275 106.714 933.938 106.04C933.601 105.366 933.433 104.578 933.433 103.676C933.433 102.771 933.601 101.979 933.938 101.301C934.275 100.623 934.749 100.097 935.359 99.7216C935.969 99.3466 936.683 99.1591 937.501 99.1591C938.319 99.1591 939.033 99.3466 939.643 99.7216C940.253 100.097 940.726 100.623 941.063 101.301C941.4 101.979 941.569 102.771 941.569 103.676C941.569 104.578 941.4 105.366 941.063 106.04C940.726 106.714 940.253 107.239 939.643 107.614C939.033 107.989 938.319 108.176 937.501 108.176ZM937.506 106.75C938.037 106.75 938.476 106.61 938.825 106.33C939.173 106.049 939.431 105.676 939.597 105.21C939.768 104.744 939.853 104.231 939.853 103.67C939.853 103.114 939.768 102.602 939.597 102.136C939.431 101.667 939.173 101.29 938.825 101.006C938.476 100.722 938.037 100.58 937.506 100.58C936.972 100.58 936.529 100.722 936.177 101.006C935.828 101.29 935.569 101.667 935.399 102.136C935.232 102.602 935.149 103.114 935.149 103.67C935.149 104.231 935.232 104.744 935.399 105.21C935.569 105.676 935.828 106.049 936.177 106.33C936.529 106.61 936.972 106.75 937.506 106.75ZM947.141 108.176C946.323 108.176 945.609 107.989 944.999 107.614C944.39 107.239 943.916 106.714 943.579 106.04C943.242 105.366 943.073 104.578 943.073 103.676C943.073 102.771 943.242 101.979 943.579 101.301C943.916 100.623 944.39 100.097 944.999 99.7216C945.609 99.3466 946.323 99.1591 947.141 99.1591C947.96 99.1591 948.674 99.3466 949.283 99.7216C949.893 100.097 950.367 100.623 950.704 101.301C951.041 101.979 951.21 102.771 951.21 103.676C951.21 104.578 951.041 105.366 950.704 106.04C950.367 106.714 949.893 107.239 949.283 107.614C948.674 107.989 947.96 108.176 947.141 108.176ZM947.147 106.75C947.677 106.75 948.117 106.61 948.465 106.33C948.814 106.049 949.071 105.676 949.238 105.21C949.408 104.744 949.494 104.231 949.494 103.67C949.494 103.114 949.408 102.602 949.238 102.136C949.071 101.667 948.814 101.29 948.465 101.006C948.117 100.722 947.677 100.58 947.147 100.58C946.613 100.58 946.17 100.722 945.818 101.006C945.469 101.29 945.21 101.667 945.039 102.136C944.872 102.602 944.789 103.114 944.789 103.67C944.789 104.231 944.872 104.744 945.039 105.21C945.21 105.676 945.469 106.049 945.818 106.33C946.17 106.61 946.613 106.75 947.147 106.75ZM957.18 99.2727V100.636H952.413V99.2727H957.18ZM953.691 97.1818H955.39V105.438C955.39 105.767 955.439 106.015 955.538 106.182C955.636 106.345 955.763 106.456 955.918 106.517C956.078 106.574 956.25 106.602 956.435 106.602C956.572 106.602 956.691 106.593 956.793 106.574C956.896 106.555 956.975 106.54 957.032 106.528L957.339 107.932C957.24 107.97 957.1 108.008 956.918 108.045C956.737 108.087 956.509 108.11 956.237 108.114C955.79 108.121 955.373 108.042 954.987 107.875C954.6 107.708 954.288 107.451 954.049 107.102C953.81 106.754 953.691 106.316 953.691 105.79V97.1818Z" fill="black"/>
<path d="M937.696 49.176C930.289 59.043 914.473 55.713 904.33 56.19C904.33 56.19 902.533 56.292 900.727 56.589C900.727 56.589 901.411 56.298 902.284 55.995C909.406 53.532 912.772 53.037 917.101 50.814C925.231 46.65 933.325 37.575 934.972 28.149C931.876 37.215 922.462 45.018 913.891 48.186C908.026 50.352 897.415 52.458 897.412 52.458C897.268 52.3842 897.125 52.3082 896.983 52.23C889.768 48.72 889.558 33.09 902.665 28.053C908.413 25.845 913.906 27.057 920.119 25.578C926.743 24.003 934.417 19.038 937.534 12.546C941.029 22.92 945.229 39.144 937.696 49.176ZM937.822 9.33597C936.984 11.3452 935.912 13.2484 934.627 15.006C931.835 12.1279 928.493 9.84002 924.799 8.27803C921.106 6.71605 917.136 5.91179 913.126 5.91297C896.557 5.91297 883.081 19.389 883.081 35.955C883.079 40.0872 883.932 44.1752 885.587 47.9617C887.242 51.7482 889.662 55.1513 892.696 57.957L893.356 58.539C892.875 58.0571 892.605 57.4039 892.605 56.723C892.606 56.0421 892.877 55.3893 893.358 54.908C893.84 54.4268 894.493 54.1565 895.174 54.1566C895.855 54.1568 896.508 54.4273 896.989 54.9088C897.471 55.3902 897.741 56.0432 897.741 56.7241C897.742 57.405 897.471 58.0581 896.99 58.5397C896.509 59.0214 895.856 59.2922 895.175 59.2926C894.494 59.293 893.841 59.023 893.359 58.542L893.806 58.938C899.207 63.5044 906.053 66.0068 913.126 66C928.96 66 941.965 53.676 943.078 38.124C943.9 30.507 941.65 20.835 937.822 9.33597Z" fill="black"/>
<defs>
<clipPath id="clip0_3569_1410">
<rect width="67" height="77" fill="white" transform="translate(0.0810547)"/>
</clipPath>
<clipPath id="clip1_3569_1410">
<rect width="58" height="67" fill="white" transform="translate(224.081 5)"/>
</clipPath>
<clipPath id="clip2_3569_1410">
<rect width="63" height="72" fill="white" transform="translate(332.081)"/>
</clipPath>
<clipPath id="clip3_3569_1410">
<rect width="66" height="67" fill="white" transform="translate(550.081)"/>
</clipPath>
<clipPath id="clip4_3569_1410">
<rect width="72" height="72" fill="white" transform="translate(657.081)"/>
</clipPath>
</defs>
</svg>
